<svg viewBox="0 0 100 99.9994806098679">
          <path d="M137.64,190.279v131.441c0,29.025,23.614,52.64,52.64,52.64h131.441c29.025,0,52.64-23.614,52.64-52.64V190.279   c0-29.025-23.614-52.64-52.64-52.64H190.279C161.254,137.64,137.64,161.254,137.64,190.279z M354.36,190.279v131.441   c0,17.998-14.642,32.64-32.64,32.64H190.279c-17.998,0-32.64-14.642-32.64-32.64V190.279c0-17.998,14.642-32.64,32.64-32.64   h131.441C339.718,157.64,354.36,172.282,354.36,190.279z"></path>
          <path d="M222.78,106.68v-28.7c0-5.523-4.477-10-10-10s-10,4.477-10,10v28.7c0,5.523,4.477,10,10,10S222.78,112.203,222.78,106.68z"></path>
          <path d="M309.22,106.68v-28.7c0-5.523-4.477-10-10-10s-10,4.477-10,10v28.7c0,5.523,4.477,10,10,10S309.22,112.203,309.22,106.68z"></path>
          <path d="M222.78,405.32c0-5.522-4.477-10-10-10s-10,4.478-10,10v28.7c0,5.522,4.477,10,10,10s10-4.478,10-10V405.32z"></path>
          <path d="M289.22,405.32v28.7c0,5.522,4.477,10,10,10s10-4.478,10-10v-28.7c0-5.522-4.477-10-10-10S289.22,399.798,289.22,405.32z"></path>
          <path d="M434.021,202.78h-28.7c-5.523,0-10,4.477-10,10s4.477,10,10,10h28.7c5.523,0,10-4.477,10-10S439.543,202.78,434.021,202.78   z"></path>
          <path d="M434.021,289.22h-28.7c-5.523,0-10,4.478-10,10s4.477,10,10,10h28.7c5.523,0,10-4.478,10-10S439.543,289.22,434.021,289.22   z"></path>
          <path d="M77.979,222.78h28.7c5.523,0,10-4.477,10-10s-4.477-10-10-10h-28.7c-5.523,0-10,4.477-10,10S72.457,222.78,77.979,222.78z"></path>
          <path d="M77.979,309.22h28.7c5.523,0,10-4.478,10-10s-4.477-10-10-10h-28.7c-5.523,0-10,4.478-10,10S72.457,309.22,77.979,309.22z"></path>
          <path d="M206.64,315.36h98.72c5.523,0,10-4.478,10-10v-98.72c0-5.523-4.477-10-10-10h-98.72c-5.523,0-10,4.477-10,10v98.72   C196.64,310.883,201.117,315.36,206.64,315.36z M216.64,216.64h78.72v78.72h-78.72V216.64z"></path>
    </svg>